<?xml version="1.0" encoding="UTF-8"?>
<svg version="1.0" viewBox="0 0 1000 263.59" xmlns="http://www.w3.org/2000/svg" xmlns:cc="http://creativecommons.org/ns#" xmlns:dc="http://purl.org/dc/elements/1.1/" xmlns:rdf="http://www.w3.org/1999/02/22-rdf-syntax-ns#" xmlns:xlink="http://www.w3.org/1999/xlink">
<metadata>
<rdf:RDF>
<cc:Work rdf:about="">
<dc:format>image/svg+xml</dc:format>
<dc:type rdf:resource="http://purl.org/dc/dcmitype/StillImage"/>
<dc:title/>
</cc:Work>
</rdf:RDF>
</metadata>
<g>
<g transform="matrix(.22661 0 0 .22661 -6.5718 -6.3356)" fill="#080808">
<path d="m55 1151-26-38 4-229c4-243 15-357 48-493 40-160 109-295 170-330 16-9 29-19 29-23 0-5 21-8 46-8 55 0 173 40 226 77 38 26 98 105 98 129 0 7 13 15 30 19 16 4 40 20 54 36 56 66 100 248 94 391l-3 90-41 37-41 36 8 159c7 144 6 161-9 173-12 8-57 12-143 13-157 0-155 2-164-135-9-135-9-135-55-135-21 0-41 4-44 8-2 4-8 59-12 122-4 70-12 119-20 127-9 9-46 13-118 13h-106zm177-166c3-97 5-106 29-131 33-33 161-56 204-36 37 17 57 72 63 175l5 87h129l-7-162c-11-283-35-475-75-610-30-100-85-145-205-171-50-10-57-9-82 9-16 12-38 39-50 61l-23 40 52-13c70-19 144-18 202 2 39 14 51 23 63 53 20 47 38 171 29 206-11 44-80 68-195 68-108 1-153-14-194-62l-25-30-6 47c-16 125-27 359-20 460l6 112h96zm510-372c-11-83-38-212-41-192-1 3 6 50 14 105 8 54 15 124 15 154 0 42 3 51 12 42s9-34 0-109zm-289-144c28-8 37-14 33-27-2-9-8-33-11-52-13-68-28-80-100-80-83 0-110 11-124 51-23 65-12 100 34 112 37 9 130 7 168-4z"/>
<path d="m811 1176c-8-10 0-80 33-287 25-151 61-382 80-514 20-132 38-255 41-273 7-41 43-76 62-61 32 27 52 79 63 159 5 47 24 141 40 210s39 188 52 265c21 136 38 192 38 127 0-91 106-719 126-750 19-29 51-26 75 8 18 26 41 184 99 680 16 140 34 293 40 338 12 95 6 112-41 112-18 0-32-7-38-19-6-10-24-144-41-298-16-153-35-314-40-358-22-174-21-174-51 20-15 99-37 261-49 360s-27 205-33 235c-12 54-13 55-49 58s-37 3-52-50c-9-29-34-172-57-318-22-146-51-309-63-363l-22-99-38 239c-20 131-48 310-62 398s-27 168-30 178c-7 21-66 24-83 3z"/>
<path d="m1712 1167c-40-28-66-79-92-187-30-128-43-303-37-490 15-385 89-521 237-431 89 53 138 196 147 426 5 136-7 335-29 440-45 224-125 310-226 242zm86-109c42-52 77-339 68-558-6-164-19-231-59-308-18-34-31-48-49-50-23-3-27 3-42 57-54 193-41 681 23 844 11 29 41 36 59 15z"/>
<path d="m2011 1172c-13-25-15-1051-2-1086 12-30 48-48 81-39 40 11 88 161 186 583l54 235-3-390c-2-360-1-393 16-418 20-31 52-35 66-8 16 28 24 735 12 934-6 92-15 176-21 187-16 29-73 28-87-2-18-36-58-193-118-458-30-135-64-276-74-315l-20-70v422c0 233-3 427-6 433-11 18-73 12-84-8z"/>
<path d="m2589 1168c-97-54-139-208-139-514 0-325 46-510 148-594 50-41 125-43 171-4 34 28 40 64 16 84-10 8-31 10-65 5-48-7-52-5-84 27-54 54-78 174-84 415-7 305 23 472 87 481 79 12 101-36 108-228 7-182 7-182 125-178 100 3 116 13 105 60-7 28-48 48-98 48h-29v76c0 149-42 266-115 316-48 33-95 35-146 6z"/>
<path d="m3615 1160c-48-33-87-100-109-185-33-130-76-571-76-795 0-112 12-150 49-150 41 0 46 24 52 249 13 404 59 719 117 784 34 39 96 10 122-58 40-104 69-473 70-892 0-34 5-46 24-58 26-17 52-12 65 14 11 20-4 583-19 716-23 204-68 329-135 381-45 34-107 32-160-6z"/>
<path d="m4094 1171c-92-42-136-140-138-308-1-126 9-151 57-139 31 7 37 29 37 132 0 100 21 176 58 204 58 47 168 6 207-77 64-133-6-278-177-364-108-54-157-119-173-230-14-97 31-233 105-313l43-46 71 1c59 0 79 5 115 27 24 15 53 40 65 55 19 26 19 30 5 55-19 34-45 39-72 14-29-28-70-42-118-42-36 0-42 4-69 47-54 84-65 175-31 250 16 34 33 49 101 88 117 68 183 132 225 220 47 97 49 173 6 262-39 80-79 124-142 156-60 32-115 34-175 8z"/>
</g>
<g transform="matrix(.22661 0 0 .22661 -6.5718 -6.3356)" fill="#fefefe">
<path d="m75 1150c-17-19-19-40-19-243-1-122 5-271 12-332 24-204 84-383 156-462 52-58 82-68 159-53 124 24 220 92 247 176 9 26 17 34 36 34 14 0 36 12 49 26 72 77 126 390 82 471-9 18-31 40-47 48-29 15-30 19-26 63 3 26 8 100 11 165l6 117h-115c-63 0-120 2-128 5-33 12-43-12-48-123-6-123-14-142-67-142-66 0-70 7-78 140l-7 120h-88c-49 0-95 2-102 5-8 3-23-4-33-15zm175-147c0-122 10-144 70-160 65-17 136-16 153 2 21 20 37 102 37 185v70h170v-37c-1-118-22-439-36-531-21-145-52-266-78-305-32-47-93-85-169-104-66-17-69-17-105 2-29 16-45 37-79 104-83 165-116 416-105 804l2 67h140zm509-277c17-37 0-187-35-297-21-67-47-110-58-98-2 2 2 33 10 69 11 55 44 314 44 350 0 20 25 4 39-24z"/>
<path d="m280 541c-52-17-91-43-100-65-5-14-3-53 5-102 18-101 37-119 130-129 76-9 131-3 170 16 37 18 56 73 58 168 2 73 2 75-29 93-35 20-191 33-234 19zm164-51c62-14 67-24 50-100-19-85-37-100-119-100-109 0-137 20-151 109-8 49 8 78 49 90 42 12 122 13 171 1z"/>
<path d="m826 1161c-3-4 15-132 39-282 24-151 62-392 84-536 22-145 42-267 46-273 12-19 34-10 49 21 8 17 20 67 26 112 7 45 23 127 36 182 26 107 78 400 90 503 7 62 24 96 24 48 0-37 56-418 96-656 37-220 49-250 83-215 21 21 48 205 106 710 13 121 30 255 35 298 6 42 8 82 5 87-8 13-42 13-50 0-3-5-17-110-30-232-45-416-78-678-84-678-4 0-12 35-19 78-6 42-23 151-37 241s-37 257-50 370c-14 113-27 212-30 219-7 19-43 14-55-8-6-10-30-144-55-297-48-300-105-578-115-566-4 5-37 201-74 437s-69 433-72 438c-7 11-41 10-48-1z"/>
<path d="m1730 1152c-41-23-63-63-89-164-31-121-44-301-37-503 11-327 62-454 169-424 110 30 164 162 174 424 9 237-24 501-77 610-19 39-63 75-92 75-7 0-29-8-48-18zm92-102c62-129 87-583 42-756-33-129-87-196-133-167-50 32-84 355-63 616 12 157 31 255 59 314 14 29 20 34 47 31 24-2 35-11 48-38z"/>
<path d="m2027 1164c-4-4-7-247-7-540 0-471 2-534 16-548 22-23 51-20 68 6 22 34 90 276 145 518 81 355 85 370 94 370 5 0 7-195 5-445-3-418-2-445 15-462 40-40 42-14 40 513 0 274-5 519-10 544-7 41-11 45-37 45-29 0-30-2-58-105-15-58-51-206-78-330-58-257-116-486-130-509-6-10-10 157-9 464l1 480-24 3c-13 2-27 0-31-4z"/>
<path d="m2613 1159c-69-20-117-120-134-282-18-157-6-492 20-590 25-94 74-190 109-213 37-24 92-28 136-10 30 12 37 20 34 38-3 21-8 23-58 23-69 0-101 19-128 77-37 76-53 183-59 378-8 284 21 470 78 500 32 18 79 11 104-14 33-34 45-84 51-221 8-180-2-165 104-165 89 0 90 0 90 25 0 31-26 45-84 45h-46v84c0 163-39 275-109 314-42 24-58 25-108 11z"/>
<path d="m3650 1159c-89-37-126-131-160-404-41-330-53-672-25-695 12-10 18-10 30 0s15 40 15 149c0 244 42 651 79 770 36 115 101 152 161 92 62-61 88-233 100-660 8-269 12-327 25-340s17-13 29-1c12 13 13 61 6 320-14 495-46 670-138 753-25 22-88 31-122 16z"/>
<path d="m4106 1154c-52-19-63-29-92-85-43-87-60-307-24-329 27-16 35 9 41 124 7 130 31 196 80 221 109 57 249-61 249-211 0-91-92-207-218-274-34-18-78-50-97-71-36-40-65-119-65-179 0-96 66-244 125-282 84-54 305 37 241 100-14 14-19 13-56-13-45-31-124-44-157-27-11 6-34 39-53 73-64 120-48 247 37 304 21 14 73 48 115 76 128 83 182 171 182 299 1 97-28 164-94 223-71 64-137 80-214 51z"/>
</g>
</g>
</svg>
