<?xml version="1.0" encoding="UTF-8" standalone="no"?>
<!-- Created with Inkscape (http://www.inkscape.org/) -->

<svg
   xmlns:dc="http://purl.org/dc/elements/1.1/"
   xmlns:cc="http://creativecommons.org/ns#"
   xmlns:rdf="http://www.w3.org/1999/02/22-rdf-syntax-ns#"
   xmlns:svg="http://www.w3.org/2000/svg"
   xmlns="http://www.w3.org/2000/svg"
   xmlns:xlink="http://www.w3.org/1999/xlink"
   xmlns:sodipodi="http://sodipodi.sourceforge.net/DTD/sodipodi-0.dtd"
   xmlns:inkscape="http://www.inkscape.org/namespaces/inkscape"
   version="1.0"
   width="1000"
   height="263.59161"
   id="svg6472"
   sodipodi:version="0.32"
   inkscape:version="0.92.3 (2405546, 2018-03-11)"
   sodipodi:docname="Amongus_wordmark.svg"
   inkscape:output_extension="org.inkscape.output.svg.inkscape">
  <metadata
     id="metadata4351">
    <rdf:RDF>
      <cc:Work
         rdf:about="">
        <dc:format>image/svg+xml</dc:format>
        <dc:type
           rdf:resource="http://purl.org/dc/dcmitype/StillImage" />
        <dc:title></dc:title>
      </cc:Work>
    </rdf:RDF>
  </metadata>
  <sodipodi:namedview
     inkscape:window-height="705"
     inkscape:window-width="1366"
     inkscape:pageshadow="2"
     inkscape:pageopacity="0.0"
     guidetolerance="10.0"
     gridtolerance="10.0"
     objecttolerance="10.0"
     borderopacity="1.0"
     bordercolor="#666666"
     pagecolor="#ffffff"
     id="base"
     showgrid="false"
     inkscape:zoom="0.70710678"
     inkscape:cx="66.610462"
     inkscape:cy="-27.525672"
     inkscape:window-x="-8"
     inkscape:window-y="-8"
     inkscape:current-layer="svg6472"
     fit-margin-top="0"
     fit-margin-left="0"
     fit-margin-right="0"
     fit-margin-bottom="0"
     inkscape:window-maximized="1"
     inkscape:measure-start="0,0"
     inkscape:measure-end="0,0" />
  <defs
     id="defs6474">
    <linearGradient
       inkscape:collect="always"
       id="linearGradient4399">
      <stop
         style="stop-color:#a7d1e8;stop-opacity:1;"
         offset="0"
         id="stop4401" />
      <stop
         style="stop-color:#a7d1e8;stop-opacity:0;"
         offset="1"
         id="stop4403" />
    </linearGradient>
    <inkscape:perspective
       sodipodi:type="inkscape:persp3d"
       inkscape:vp_x="0 : 96.419777 : 1"
       inkscape:vp_y="0 : 1000 : 0"
       inkscape:vp_z="193.88593 : 96.419777 : 1"
       inkscape:persp3d-origin="96.942963 : 64.279851 : 1"
       id="perspective4353" />
    <linearGradient
       id="linearGradient7282">
      <stop
         id="stop7284"
         style="stop-color:#5e94ca;stop-opacity:1"
         offset="0" />
      <stop
         id="stop7286"
         style="stop-color:#1c458e;stop-opacity:1"
         offset="1" />
    </linearGradient>
    <linearGradient
       id="linearGradient7264">
      <stop
         id="stop7266"
         style="stop-color:#5e94ca;stop-opacity:1"
         offset="0" />
      <stop
         id="stop7268"
         style="stop-color:#5e94ca;stop-opacity:0"
         offset="1" />
    </linearGradient>
    <linearGradient
       id="linearGradient7230">
      <stop
         id="stop7232"
         style="stop-color:#5e94ca;stop-opacity:1"
         offset="0" />
      <stop
         id="stop7234"
         style="stop-color:#000080;stop-opacity:0"
         offset="1" />
    </linearGradient>
    <linearGradient
       id="linearGradient7152">
      <stop
         id="stop7154"
         style="stop-color:#0072b4;stop-opacity:1"
         offset="0" />
      <stop
         id="stop7156"
         style="stop-color:#0072b4;stop-opacity:0"
         offset="1" />
    </linearGradient>
    <linearGradient
       id="linearGradient7120">
      <stop
         id="stop7122"
         style="stop-color:#007bbd;stop-opacity:1"
         offset="0" />
      <stop
         id="stop7124"
         style="stop-color:#007bbd;stop-opacity:0"
         offset="1" />
    </linearGradient>
    <linearGradient
       id="linearGradient6499">
      <stop
         id="stop6501"
         style="stop-color:#007bbd;stop-opacity:1"
         offset="0" />
      <stop
         id="stop6503"
         style="stop-color:#007bbd;stop-opacity:0"
         offset="1" />
    </linearGradient>
    <linearGradient
       x1="242.37477"
       y1="511.68008"
       x2="225.80212"
       y2="140.86739"
       id="linearGradient7236"
       xlink:href="#linearGradient7230"
       gradientUnits="userSpaceOnUse"
       gradientTransform="matrix(0.3576965,0,0,0.3576965,54.07383,161.80565)" />
    <linearGradient
       x1="355.07977"
       y1="306.27048"
       x2="355.07977"
       y2="431.03497"
       id="linearGradient7239"
       xlink:href="#linearGradient7152"
       gradientUnits="userSpaceOnUse"
       gradientTransform="matrix(-0.3793752,0,0,0.3576965,342.39133,161.80565)" />
    <linearGradient
       x1="355.07977"
       y1="306.27048"
       x2="355.07977"
       y2="431.03497"
       id="linearGradient7242"
       xlink:href="#linearGradient7152"
       gradientUnits="userSpaceOnUse"
       gradientTransform="matrix(0.3576965,0,0,0.3576965,54.07383,161.80565)" />
    <linearGradient
       x1="252.18178"
       y1="296.51114"
       x2="252.18178"
       y2="419.55664"
       id="linearGradient7245"
       xlink:href="#linearGradient7120"
       gradientUnits="userSpaceOnUse"
       gradientTransform="matrix(0.3576965,0,0,0.3576965,54.07383,161.80565)" />
    <linearGradient
       x1="321.77341"
       y1="562.26984"
       x2="323.13477"
       y2="627.052"
       id="linearGradient7257"
       xlink:href="#linearGradient6499"
       gradientUnits="userSpaceOnUse"
       gradientTransform="matrix(0.3576965,0,0,0.3576965,54.07383,161.80565)" />
    <linearGradient
       x1="-34.140274"
       y1="380.06137"
       x2="94.542305"
       y2="621.66949"
       id="linearGradient7270"
       xlink:href="#linearGradient7264"
       gradientUnits="userSpaceOnUse"
       gradientTransform="matrix(0.3576965,0,0,0.3576965,54.07383,161.80565)" />
    <linearGradient
       x1="143.12654"
       y1="457.53351"
       x2="65.654373"
       y2="749.03894"
       id="linearGradient7280"
       xlink:href="#linearGradient7282"
       gradientUnits="userSpaceOnUse"
       gradientTransform="matrix(-0.3576965,0,0,0.3576965,289.85669,161.80565)" />
    <linearGradient
       x1="-34.140274"
       y1="380.06137"
       x2="94.542305"
       y2="621.66949"
       id="linearGradient7296"
       xlink:href="#linearGradient7264"
       gradientUnits="userSpaceOnUse"
       gradientTransform="matrix(0,0.3576965,-0.3576965,0,349.10627,221.80114)" />
    <linearGradient
       x1="-34.140274"
       y1="380.06137"
       x2="94.542305"
       y2="621.66949"
       id="linearGradient7302"
       xlink:href="#linearGradient7264"
       gradientUnits="userSpaceOnUse"
       gradientTransform="matrix(0,-0.3421752,0.3610459,0,-7.0095037,455.78032)" />
    <linearGradient
       x1="-34.140274"
       y1="380.06137"
       x2="94.542305"
       y2="621.66949"
       id="linearGradient7304"
       xlink:href="#linearGradient7264"
       gradientUnits="userSpaceOnUse"
       gradientTransform="matrix(-0.3576965,0,0,0.3576965,289.85669,161.80565)" />
    <linearGradient
       inkscape:collect="always"
       xlink:href="#linearGradient7120"
       id="linearGradient4379"
       x1="87.900986"
       y1="24.226593"
       x2="87.900986"
       y2="65.507378"
       gradientUnits="userSpaceOnUse" />
    <linearGradient
       inkscape:collect="always"
       xlink:href="#linearGradient7120"
       id="linearGradient4389"
       gradientUnits="userSpaceOnUse"
       x1="86.345215"
       y1="11.781172"
       x2="87.900986"
       y2="69.863243" />
    <linearGradient
       inkscape:collect="always"
       xlink:href="#linearGradient7120"
       id="linearGradient4391"
       gradientUnits="userSpaceOnUse"
       x1="86.345215"
       y1="11.781172"
       x2="87.900986"
       y2="69.863243"
       gradientTransform="translate(-10)" />
    <linearGradient
       inkscape:collect="always"
       xlink:href="#linearGradient7120"
       id="linearGradient4393"
       gradientUnits="userSpaceOnUse"
       x1="86.345215"
       y1="11.781172"
       x2="87.900986"
       y2="69.863243"
       gradientTransform="translate(-10)" />
    <linearGradient
       inkscape:collect="always"
       xlink:href="#linearGradient7120"
       id="linearGradient4395"
       gradientUnits="userSpaceOnUse"
       x1="86.345215"
       y1="11.781172"
       x2="87.900986"
       y2="69.863243" />
    <linearGradient
       inkscape:collect="always"
       xlink:href="#linearGradient4399"
       id="linearGradient4405"
       x1="92.049706"
       y1="126.61292"
       x2="92.049706"
       y2="137.12027"
       gradientUnits="userSpaceOnUse" />
    <linearGradient
       inkscape:collect="always"
       xlink:href="#linearGradient7120"
       id="linearGradient4407"
       gradientUnits="userSpaceOnUse"
       x1="87.900986"
       y1="38.709629"
       x2="87.900986"
       y2="72.500351" />
    <linearGradient
       inkscape:collect="always"
       xlink:href="#linearGradient7120"
       id="linearGradient4411"
       x1="77.278931"
       y1="121.02853"
       x2="77.278931"
       y2="139.7103"
       gradientUnits="userSpaceOnUse"
       gradientTransform="translate(10)" />
    <linearGradient
       inkscape:collect="always"
       xlink:href="#linearGradient7120"
       id="linearGradient4413"
       gradientUnits="userSpaceOnUse"
       x1="87.900986"
       y1="40.534054"
       x2="87.900986"
       y2="69.863243" />
  </defs>
  <g
     id="g109">
    <g
       style="fill:#080808;stroke:none"
       transform="matrix(0.22661263,0,0,0.22661263,-6.5717663,-6.3355964)"
       id="layer101">
      <path
         inkscape:connector-curvature="0"
         id="path50"
         d="M 55,1151 29,1113 33,884 C 37,641 48,527 81,391 121,231 190,96 251,61 c 16,-9 29,-19 29,-23 0,-5 21,-8 46,-8 55,0 173,40 226,77 38,26 98,105 98,129 0,7 13,15 30,19 16,4 40,20 54,36 56,66 100,248 94,391 l -3,90 -41,37 -41,36 8,159 c 7,144 6,161 -9,173 -12,8 -57,12 -143,13 -157,0 -155,2 -164,-135 -9,-135 -9,-135 -55,-135 -21,0 -41,4 -44,8 -2,4 -8,59 -12,122 -4,70 -12,119 -20,127 -9,9 -46,13 -118,13 H 80 Z M 232,985 c 3,-97 5,-106 29,-131 33,-33 161,-56 204,-36 37,17 57,72 63,175 l 5,87 h 64 65 L 655,918 C 644,635 620,443 580,308 550,208 495,163 375,137 c -50,-10 -57,-9 -82,9 -16,12 -38,39 -50,61 l -23,40 52,-13 c 70,-19 144,-18 202,2 39,14 51,23 63,53 20,47 38,171 29,206 -11,44 -80,68 -195,68 -108,1 -153,-14 -194,-62 l -25,-30 -6,47 c -16,125 -27,359 -20,460 l 6,112 h 48 48 z M 742,613 c -11,-83 -38,-212 -41,-192 -1,3 6,50 14,105 8,54 15,124 15,154 0,42 3,51 12,42 9,-9 9,-34 0,-109 z M 453,469 c 28,-8 37,-14 33,-27 -2,-9 -8,-33 -11,-52 -13,-68 -28,-80 -100,-80 -83,0 -110,11 -124,51 -23,65 -12,100 34,112 37,9 130,7 168,-4 z" />
      <path
         inkscape:connector-curvature="0"
         id="path52"
         d="m 811,1176 c -8,-10 0,-80 33,-287 25,-151 61,-382 80,-514 20,-132 38,-255 41,-273 7,-41 43,-76 62,-61 32,27 52,79 63,159 5,47 24,141 40,210 16,69 39,188 52,265 21,136 38,192 38,127 0,-91 106,-719 126,-750 19,-29 51,-26 75,8 18,26 41,184 99,680 16,140 34,293 40,338 12,95 6,112 -41,112 -18,0 -32,-7 -38,-19 -6,-10 -24,-144 -41,-298 -16,-153 -35,-314 -40,-358 -22,-174 -21,-174 -51,20 -15,99 -37,261 -49,360 -12,99 -27,205 -33,235 -12,54 -13,55 -49,58 -36,3 -37,3 -52,-50 -9,-29 -34,-172 -57,-318 -22,-146 -51,-309 -63,-363 l -22,-99 -38,239 c -20,131 -48,310 -62,398 -14,88 -27,168 -30,178 -7,21 -66,24 -83,3 z" />
      <path
         inkscape:connector-curvature="0"
         id="path54"
         d="m 1712,1167 c -40,-28 -66,-79 -92,-187 -30,-128 -43,-303 -37,-490 15,-385 89,-521 237,-431 89,53 138,196 147,426 5,136 -7,335 -29,440 -45,224 -125,310 -226,242 z m 86,-109 c 42,-52 77,-339 68,-558 -6,-164 -19,-231 -59,-308 -18,-34 -31,-48 -49,-50 -23,-3 -27,3 -42,57 -54,193 -41,681 23,844 11,29 41,36 59,15 z" />
      <path
         inkscape:connector-curvature="0"
         id="path56"
         d="m 2011,1172 c -13,-25 -15,-1051 -2,-1086 12,-30 48,-48 81,-39 40,11 88,161 186,583 l 54,235 -3,-390 c -2,-360 -1,-393 16,-418 20,-31 52,-35 66,-8 16,28 24,735 12,934 -6,92 -15,176 -21,187 -16,29 -73,28 -87,-2 -18,-36 -58,-193 -118,-458 -30,-135 -64,-276 -74,-315 l -20,-70 v 422 c 0,233 -3,427 -6,433 -11,18 -73,12 -84,-8 z" />
      <path
         inkscape:connector-curvature="0"
         id="path58"
         d="m 2589,1168 c -97,-54 -139,-208 -139,-514 0,-325 46,-510 148,-594 50,-41 125,-43 171,-4 34,28 40,64 16,84 -10,8 -31,10 -65,5 -48,-7 -52,-5 -84,27 -54,54 -78,174 -84,415 -7,305 23,472 87,481 79,12 101,-36 108,-228 7,-182 7,-182 125,-178 100,3 116,13 105,60 -7,28 -48,48 -98,48 h -29 v 76 c 0,149 -42,266 -115,316 -48,33 -95,35 -146,6 z" />
      <path
         inkscape:connector-curvature="0"
         id="path60"
         d="m 3615,1160 c -48,-33 -87,-100 -109,-185 -33,-130 -76,-571 -76,-795 0,-112 12,-150 49,-150 41,0 46,24 52,249 13,404 59,719 117,784 34,39 96,10 122,-58 40,-104 69,-473 70,-892 0,-34 5,-46 24,-58 26,-17 52,-12 65,14 11,20 -4,583 -19,716 -23,204 -68,329 -135,381 -45,34 -107,32 -160,-6 z" />
      <path
         inkscape:connector-curvature="0"
         id="path62"
         d="m 4094,1171 c -92,-42 -136,-140 -138,-308 -1,-126 9,-151 57,-139 31,7 37,29 37,132 0,100 21,176 58,204 58,47 168,6 207,-77 64,-133 -6,-278 -177,-364 -108,-54 -157,-119 -173,-230 -14,-97 31,-233 105,-313 l 43,-46 71,1 c 59,0 79,5 115,27 24,15 53,40 65,55 19,26 19,30 5,55 -19,34 -45,39 -72,14 -29,-28 -70,-42 -118,-42 -36,0 -42,4 -69,47 -54,84 -65,175 -31,250 16,34 33,49 101,88 117,68 183,132 225,220 47,97 49,173 6,262 -39,80 -79,124 -142,156 -60,32 -115,34 -175,8 z" />
    </g>
    <g
       style="fill:#fefefe;stroke:none"
       transform="matrix(0.22661263,0,0,0.22661263,-6.5717663,-6.3355964)"
       id="layer102">
      <path
         inkscape:connector-curvature="0"
         id="path65"
         d="M 75,1150 C 58,1131 56,1110 56,907 55,785 61,636 68,575 92,371 152,192 224,113 276,55 306,45 383,60 c 124,24 220,92 247,176 9,26 17,34 36,34 14,0 36,12 49,26 72,77 126,390 82,471 -9,18 -31,40 -47,48 -29,15 -30,19 -26,63 3,26 8,100 11,165 l 6,117 H 626 c -63,0 -120,2 -128,5 -33,12 -43,-12 -48,-123 -6,-123 -14,-142 -67,-142 -66,0 -70,7 -78,140 l -7,120 h -88 c -49,0 -95,2 -102,5 -8,3 -23,-4 -33,-15 z m 175,-147 c 0,-122 10,-144 70,-160 65,-17 136,-16 153,2 21,20 37,102 37,185 v 70 h 85 85 v -37 C 679,945 658,624 644,532 623,387 592,266 566,227 534,180 473,142 397,123 331,106 328,106 292,125 263,141 247,162 213,229 130,394 97,645 108,1033 l 2,67 h 70 70 z M 759,726 c 17,-37 0,-187 -35,-297 -21,-67 -47,-110 -58,-98 -2,2 2,33 10,69 11,55 44,314 44,350 0,20 25,4 39,-24 z" />
      <path
         inkscape:connector-curvature="0"
         id="path67"
         d="m 280,541 c -52,-17 -91,-43 -100,-65 -5,-14 -3,-53 5,-102 18,-101 37,-119 130,-129 76,-9 131,-3 170,16 37,18 56,73 58,168 2,73 2,75 -29,93 -35,20 -191,33 -234,19 z m 164,-51 c 62,-14 67,-24 50,-100 -19,-85 -37,-100 -119,-100 -109,0 -137,20 -151,109 -8,49 8,78 49,90 42,12 122,13 171,1 z" />
      <path
         inkscape:connector-curvature="0"
         id="path69"
         d="m 826,1161 c -3,-4 15,-132 39,-282 24,-151 62,-392 84,-536 22,-145 42,-267 46,-273 12,-19 34,-10 49,21 8,17 20,67 26,112 7,45 23,127 36,182 26,107 78,400 90,503 7,62 24,96 24,48 0,-37 56,-418 96,-656 37,-220 49,-250 83,-215 21,21 48,205 106,710 13,121 30,255 35,298 6,42 8,82 5,87 -8,13 -42,13 -50,0 -3,-5 -17,-110 -30,-232 -45,-416 -78,-678 -84,-678 -4,0 -12,35 -19,78 -6,42 -23,151 -37,241 -14,90 -37,257 -50,370 -14,113 -27,212 -30,219 -7,19 -43,14 -55,-8 -6,-10 -30,-144 -55,-297 -48,-300 -105,-578 -115,-566 -4,5 -37,201 -74,437 -37,236 -69,433 -72,438 -7,11 -41,10 -48,-1 z" />
      <path
         inkscape:connector-curvature="0"
         id="path71"
         d="m 1730,1152 c -41,-23 -63,-63 -89,-164 -31,-121 -44,-301 -37,-503 11,-327 62,-454 169,-424 110,30 164,162 174,424 9,237 -24,501 -77,610 -19,39 -63,75 -92,75 -7,0 -29,-8 -48,-18 z m 92,-102 c 62,-129 87,-583 42,-756 -33,-129 -87,-196 -133,-167 -50,32 -84,355 -63,616 12,157 31,255 59,314 14,29 20,34 47,31 24,-2 35,-11 48,-38 z" />
      <path
         inkscape:connector-curvature="0"
         id="path73"
         d="m 2027,1164 c -4,-4 -7,-247 -7,-540 0,-471 2,-534 16,-548 22,-23 51,-20 68,6 22,34 90,276 145,518 81,355 85,370 94,370 5,0 7,-195 5,-445 -3,-418 -2,-445 15,-462 40,-40 42,-14 40,513 0,274 -5,519 -10,544 -7,41 -11,45 -37,45 -29,0 -30,-2 -58,-105 -15,-58 -51,-206 -78,-330 -58,-257 -116,-486 -130,-509 -6,-10 -10,157 -9,464 l 1,480 -24,3 c -13,2 -27,0 -31,-4 z" />
      <path
         inkscape:connector-curvature="0"
         id="path75"
         d="m 2613,1159 c -69,-20 -117,-120 -134,-282 -18,-157 -6,-492 20,-590 25,-94 74,-190 109,-213 37,-24 92,-28 136,-10 30,12 37,20 34,38 -3,21 -8,23 -58,23 -69,0 -101,19 -128,77 -37,76 -53,183 -59,378 -8,284 21,470 78,500 32,18 79,11 104,-14 33,-34 45,-84 51,-221 8,-180 -2,-165 104,-165 89,0 90,0 90,25 0,31 -26,45 -84,45 h -46 v 84 c 0,163 -39,275 -109,314 -42,24 -58,25 -108,11 z" />
      <path
         inkscape:connector-curvature="0"
         id="path77"
         d="m 3650,1159 c -89,-37 -126,-131 -160,-404 -41,-330 -53,-672 -25,-695 12,-10 18,-10 30,0 12,10 15,40 15,149 0,244 42,651 79,770 36,115 101,152 161,92 62,-61 88,-233 100,-660 8,-269 12,-327 25,-340 13,-13 17,-13 29,-1 12,13 13,61 6,320 -14,495 -46,670 -138,753 -25,22 -88,31 -122,16 z" />
      <path
         inkscape:connector-curvature="0"
         id="path79"
         d="m 4106,1154 c -52,-19 -63,-29 -92,-85 -43,-87 -60,-307 -24,-329 27,-16 35,9 41,124 7,130 31,196 80,221 109,57 249,-61 249,-211 0,-91 -92,-207 -218,-274 -34,-18 -78,-50 -97,-71 -36,-40 -65,-119 -65,-179 0,-96 66,-244 125,-282 84,-54 305,37 241,100 -14,14 -19,13 -56,-13 -45,-31 -124,-44 -157,-27 -11,6 -34,39 -53,73 -64,120 -48,247 37,304 21,14 73,48 115,76 128,83 182,171 182,299 1,97 -28,164 -94,223 -71,64 -137,80 -214,51 z" />
    </g>
  </g>
</svg>
