<?xml version="1.0" standalone="no"?>
<!DOCTYPE svg PUBLIC "-//W3C//DTD SVG 20010904//EN"
 "http://www.w3.org/TR/2001/REC-SVG-20010904/DTD/svg10.dtd">
<svg version="1.0" xmlns="http://www.w3.org/2000/svg"
 width="851.000000pt" height="291.000000pt" viewBox="0 0 851.000000 291.000000"
 preserveAspectRatio="xMidYMid meet">

<g transform="translate(0.000000,291.000000) scale(0.100000,-0.100000)"
fill="#000000" stroke="none">
<path d="M0 1455 l0 -1455 4255 0 4255 0 0 1455 0 1455 -4255 0 -4255 0 0
-1455z m5065 915 c50 -11 77 -43 73 -84 l-3 -31 -106 -5 c-149 -7 -178 -31
-239 -200 -82 -226 -108 -753 -56 -1145 23 -169 40 -221 91 -272 38 -38 48
-43 88 -43 96 0 148 41 176 140 27 90 33 146 40 363 5 151 9 190 21 197 8 5
69 10 135 10 164 0 205 -24 152 -86 -23 -26 -32 -29 -113 -34 l-89 -5 -6 -165
c-8 -190 -25 -282 -73 -383 -59 -126 -120 -171 -225 -165 -57 3 -74 9 -126 43
-83 56 -124 135 -161 310 -27 128 -27 135 -28 510 0 390 4 451 44 640 31 146
104 301 173 363 50 46 142 63 232 42z m1326 -31 c4 -13 7 -118 8 -234 1 -115
8 -291 16 -390 8 -99 19 -245 25 -325 11 -148 15 -181 50 -400 21 -135 52
-255 76 -302 8 -16 33 -47 55 -69 36 -36 43 -39 94 -39 46 0 59 5 88 29 77 68
107 166 152 501 23 167 28 252 35 590 5 217 9 443 9 502 1 99 3 109 25 135 20
23 28 26 43 17 40 -24 43 -50 33 -260 -5 -109 -11 -307 -14 -439 -8 -356 -22
-511 -71 -795 -18 -108 -31 -153 -62 -215 -34 -67 -78 -121 -126 -156 -34 -24
-50 -29 -101 -29 -102 0 -179 55 -236 170 -53 105 -98 288 -115 465 -3 39 -15
148 -26 244 -23 205 -36 427 -45 757 -7 237 -6 242 14 262 27 27 63 17 73 -19z
m1341 4 c59 -26 128 -90 128 -119 0 -23 -19 -54 -34 -54 -7 0 -51 19 -97 42
-85 42 -160 58 -214 44 -35 -9 -98 -68 -129 -120 -51 -86 -68 -161 -64 -276 3
-92 6 -112 32 -162 37 -72 50 -85 166 -150 214 -121 339 -241 400 -382 34 -79
51 -206 40 -286 -34 -240 -238 -439 -427 -415 -227 28 -333 207 -333 563 0 96
3 128 16 147 19 29 36 31 58 9 12 -12 16 -37 16 -105 0 -123 31 -342 55 -389
15 -27 67 -78 102 -97 13 -7 56 -13 96 -13 59 0 83 5 125 26 62 31 126 99 161
174 31 65 40 193 21 278 -31 139 -164 280 -365 385 -86 45 -162 111 -203 174
-59 92 -78 256 -47 404 31 144 146 309 241 345 58 21 182 10 256 -23z m-4964
5 c21 -24 40 -109 61 -278 6 -47 22 -170 35 -275 14 -104 30 -230 35 -280 6
-49 15 -123 21 -162 5 -40 14 -123 20 -185 6 -62 17 -158 25 -213 21 -150 48
-462 42 -480 -10 -25 -66 -19 -76 8 -11 29 -108 842 -126 1052 -3 39 -12 115
-20 170 -7 55 -19 146 -26 203 -9 72 -16 102 -26 102 -7 0 -13 -1 -13 -2 0 -2
-14 -79 -30 -173 -40 -225 -55 -323 -85 -550 -14 -104 -34 -255 -45 -335 -11
-80 -24 -190 -31 -244 -11 -105 -32 -217 -44 -235 -9 -15 -60 -14 -73 1 -19
25 -58 236 -147 813 -24 153 -62 347 -100 510 -7 33 -19 86 -26 118 -11 54
-21 68 -33 48 -3 -4 -14 -64 -26 -132 -11 -68 -27 -164 -35 -214 -16 -90 -36
-220 -80 -500 -12 -82 -30 -190 -38 -240 -8 -49 -25 -157 -38 -240 -12 -82
-26 -156 -32 -162 -15 -21 -75 -16 -82 5 -5 19 3 88 25 207 6 33 17 96 24 140
8 44 23 136 35 205 45 265 61 368 71 445 13 97 56 388 75 505 7 47 22 143 31
214 13 97 23 135 37 149 51 51 85 -19 126 -264 18 -101 38 -207 46 -236 9 -29
22 -87 30 -130 8 -43 21 -109 29 -148 23 -110 72 -386 96 -540 29 -190 31
-198 41 -188 7 7 18 75 69 448 6 44 15 105 20 135 6 30 17 100 24 155 15 105
46 294 71 430 8 44 17 103 20 130 27 211 64 275 123 213z m685 8 c47 -19 114
-92 147 -161 70 -143 110 -387 110 -676 0 -260 -41 -642 -86 -796 -53 -184
-119 -263 -217 -263 -125 0 -218 169 -260 475 -27 190 -28 204 -29 465 -2 333
8 497 38 649 33 164 65 242 117 286 35 31 47 35 94 35 30 0 68 -6 86 -14z
m1030 -8 c19 -34 18 -1574 -2 -1738 -17 -143 -21 -152 -69 -148 -27 2 -39 9
-48 28 -17 33 -59 175 -83 280 -60 252 -127 548 -161 705 -11 55 -32 141 -45
190 -13 50 -38 144 -55 210 -46 177 -63 226 -74 222 -12 -4 -15 -866 -6 -1352
3 -143 1 -266 -3 -272 -12 -19 -84 -17 -91 3 -3 9 -6 422 -6 919 l0 903 29 31
c33 35 70 40 93 14 24 -29 61 -129 131 -358 27 -87 85 -324 122 -495 19 -91
41 -192 49 -225 8 -33 22 -94 31 -135 10 -41 21 -88 26 -105 5 -16 18 -68 29
-114 18 -80 33 -112 46 -99 12 13 17 719 6 953 -13 267 -4 564 18 590 18 22
48 18 63 -7z m-3362 -13 c139 -36 286 -157 328 -269 16 -42 24 -52 56 -63 50
-17 70 -35 116 -107 99 -151 167 -602 111 -730 -18 -40 -53 -73 -117 -111 -16
-10 -16 -26 -6 -235 6 -124 13 -248 16 -277 8 -83 9 -83 -234 -83 -195 0 -209
1 -226 20 -15 16 -20 48 -27 177 -10 182 -21 246 -48 291 -18 29 -24 32 -70
32 -28 0 -64 -7 -80 -15 -58 -30 -60 -40 -60 -267 0 -174 -2 -209 -16 -222
-13 -13 -44 -16 -183 -16 -161 0 -168 1 -188 22 -36 39 -45 100 -47 347 -6
481 43 891 134 1141 64 174 124 263 220 326 76 50 213 67 321 39z"/>
<path d="M3355 2263 c-51 -12 -81 -82 -112 -263 -22 -125 -25 -841 -5 -990 41
-292 90 -420 162 -420 60 0 109 86 155 276 53 211 69 537 44 855 -17 220 -75
417 -146 496 -39 43 -63 54 -98 46z"/>
<path d="M892 2241 c-111 -38 -158 -99 -227 -295 -56 -159 -100 -404 -115
-646 -13 -211 -17 -632 -6 -689 l8 -44 104 5 c57 3 106 7 109 10 3 2 7 72 11
154 7 199 17 246 60 294 26 28 48 41 87 51 55 13 188 16 224 5 52 -16 80 -124
89 -335 8 -202 -9 -181 148 -181 l134 0 4 48 c4 53 -26 629 -41 780 -13 131
-53 358 -91 519 -37 153 -59 192 -147 250 -140 93 -237 113 -351 74z m308
-251 c61 -34 88 -90 102 -213 16 -132 8 -154 -62 -189 -53 -26 -60 -27 -226
-28 -180 0 -244 11 -312 52 -45 27 -62 66 -62 139 0 125 55 216 150 250 47 17
77 19 210 17 144 -3 158 -5 200 -28z"/>
<path d="M857 1930 c-80 -15 -113 -51 -129 -138 -14 -76 2 -103 80 -133 51
-19 72 -21 192 -17 207 7 243 30 220 142 -21 98 -39 129 -85 142 -44 14 -218
16 -278 4z"/>
<path d="M1490 1893 c0 -4 9 -42 20 -83 20 -76 51 -292 74 -517 7 -67 15 -125
19 -129 9 -9 36 14 53 47 30 58 13 248 -41 460 -28 111 -81 222 -108 227 -10
2 -17 0 -17 -5z"/>
</g>
</svg>
